<svg xmlns="http://www.w3.org/2000/svg" viewBox="0 0 284.7 78.81"><g id="レイヤー_2" data-name="レイヤー 2"><g id="レイヤー_1-2" data-name="レイヤー 1"><path d="M19.44,11.1c-1.68-2.46-3.48-4-5.94-4-2.88,0-4.26,1.74-4.26,4.56,0,3.24,1.8,4.56,6.18,6C22.86,20,26,23.1,26,30.42c0,6.78-4.32,12.06-12.3,12.06C7.5,42.48,3.24,40.5,0,35.7l6.3-4.44c1.92,2.4,3.72,4.14,6.78,4.14,3.36,0,4.5-2.1,4.5-4.62,0-2.88-1.32-4.5-6.54-6.18-7-2.28-10.2-6.12-10.2-13C.84,5.1,4.74,0,13.14,0c5.52,0,10,2.16,12.36,6.72Z"/><path d="M37.32,25.2V.54h8.4V25.2c0,7.08,1.32,10.2,5.22,10.2s5.22-3.12,5.22-10.2V.54h8.4V25.2c0,12.18-5.58,17.28-13.62,17.28S37.32,37.38,37.32,25.2Z"/><path d="M94.2,13.38c-.42-3.9-1.68-6.3-4.68-6.3-3.72,0-5.28,3.3-5.28,11.22v5.88c0,7.68,1.56,11.22,5.28,11.22,3,0,4.5-2.28,4.74-7.92H89.64V20.4H102.3v3.72c0,11.94-3.72,18.36-12.78,18.36-8.1,0-13.68-5.64-13.68-18.3V18.3C75.84,5.52,81.42,0,89.52,0,96.3,0,101,4.32,102.18,13.38Z"/><path d="M124,41.94h-8.4V.54H124Z"/><path d="M154.44.54H164L153.36,25V41.94H145V25L134.28.54h9.6l5.28,15.18Z"/><path d="M176,41.94h-8.76L179.16.54h8.16l11.94,41.4H190.5l-2-7.86H178Zm7.26-29.52L179.64,27h7.2Z"/><path d="M217,19.38V41.94h-8.4V.54h7.92l9.18,19.62L234.84.54h7.92v41.4h-8.4V19.38L228.3,32.1H223Z"/><path d="M261.42,41.94h-8.76L264.6.54h8.16l11.94,41.4h-8.76l-2-7.86H263.4Zm7.26-29.52L265.08,27h7.2Z"/><path d="M73.16,63.18h6c4.81,0,8.14,3.05,8.14,7.68S84,78.51,79.2,78.51h-6Zm6,12.46A4.59,4.59,0,0,0,84,70.86a4.49,4.49,0,0,0-4.81-4.81H76.42v9.59Z"/><path d="M102.46,63.18h10.85V66h-7.59v3.34h7.43v2.8h-7.43v3.57h7.59v2.82H102.46Z"/><path d="M129.39,73.87a6.72,6.72,0,0,0,4.88,2.07c1.79,0,2.66-.85,2.66-1.73,0-1.15-1.33-1.54-3.1-1.95-2.51-.58-5.73-1.27-5.73-4.69,0-2.55,2.21-4.62,5.82-4.62a8.54,8.54,0,0,1,6,2.13l-1.82,2.4a6.53,6.53,0,0,0-4.39-1.68c-1.47,0-2.25.64-2.25,1.56s1.29,1.36,3.06,1.77c2.52.58,5.74,1.34,5.74,4.74,0,2.8-2,4.92-6.14,4.92a8.82,8.82,0,0,1-6.5-2.44Z"/><path d="M155,63.18h3.27V78.51H155Z"/><path d="M180.61,62.92A7.2,7.2,0,0,1,187,66.28l-2.72,1.47a4.34,4.34,0,0,0-3.63-1.93,5,5,0,0,0,0,10.07,5.18,5.18,0,0,0,3.31-1.17V72.86h-4.09V70.05h7.31v5.87a8.53,8.53,0,0,1-6.53,2.89,7.8,7.8,0,0,1-8.16-8C172.45,66,176.13,62.92,180.61,62.92Z"/><path d="M204.64,68.21v10.3h-3.26V63.18h3.36l7.1,9.93V63.18h3.27V78.51H212Z"/></g></g></svg>