<?xml version="1.0" encoding="utf-8"?>
<!-- Generator: Adobe Illustrator 24.1.0, SVG Export Plug-In . SVG Version: 6.00 Build 0)  -->
<svg version="1.1" id="レイヤー_1" xmlns="http://www.w3.org/2000/svg" xmlns:xlink="http://www.w3.org/1999/xlink" x="0px"
	 y="0px" width="35px" height="26.5px" viewBox="0 0 35 26.5" style="enable-background:new 0 0 35 26.5;" xml:space="preserve">
<style type="text/css">
	.st0{enable-background:new    ;}
</style>
<g class="st0">
	<path d="M13.3,26.3c-2.3,0-4.5-0.6-6.4-1.7c-2-1.1-3.5-2.7-4.7-4.6c-1.1-1.9-1.7-4.1-1.7-6.4c0-2.3,0.6-4.4,1.7-6.4
		c1.1-2,2.7-3.5,4.7-4.7c2-1.2,4.1-1.8,6.4-1.8c2.3,0,4.4,0.6,6.4,1.8c2,1.2,3.5,2.8,4.7,4.7c1.2,2,1.8,4.1,1.8,6.4
		c0,1.6-0.3,3.2-0.9,4.6c-0.6,1.5-1.4,2.8-2.5,3.9l-0.3,0.3h4.8V26H16C15.1,26.2,14.2,26.3,13.3,26.3z M13.3,4.3
		c-1.7,0-3.2,0.4-4.6,1.3c-1.4,0.8-2.5,2-3.3,3.4c-0.8,1.4-1.2,3-1.2,4.6c0,1.7,0.4,3.2,1.2,4.6c0.8,1.4,1.9,2.5,3.3,3.4
		c1.4,0.8,2.9,1.2,4.6,1.2c1.6,0,3.2-0.4,4.5-1.2c1.4-0.8,2.4-2,3.2-3.4s1.2-3,1.2-4.6c0-1.7-0.4-3.2-1.2-4.6
		c-0.8-1.4-1.9-2.5-3.3-3.4C16.5,4.7,15,4.3,13.3,4.3z"/>
	<path d="M32.6,26c-0.5,0-1-0.2-1.3-0.5c-0.4-0.4-0.6-0.8-0.6-1.4c0-0.5,0.2-1,0.6-1.4c0.4-0.4,0.8-0.6,1.3-0.6
		c0.5,0,0.9,0.2,1.3,0.6c0.4,0.4,0.6,0.8,0.6,1.4c0,0.6-0.2,1-0.6,1.4C33.5,25.8,33,26,32.6,26z"/>
</g>
</svg>
